<svg width="45" height="45" viewBox="0 0 45 45" fill="none" xmlns="http://www.w3.org/2000/svg">
	<path d="M19.515 31.948L23.584 39.763L27.653 31.949L29.851 27.943C32.997 22.259 34.3 19.906 34.192 16.332C34.2369 14.0826 33.5728 11.8761 32.294 10.025C29.371 6.05103 24.167 5.93604 23.584 5.93604C23.001 5.93604 17.792 6.05703 14.872 10.025H14.871C13.593 11.876 12.9296 14.0822 12.975 16.331C12.868 19.906 14.17 22.26 17.319 27.946L19.516 31.946L19.515 31.948ZM23.582 9.76303C24.7715 9.76303 25.9342 10.1158 26.9232 10.7766C27.9122 11.4374 28.683 12.3767 29.1382 13.4756C29.5934 14.5745 29.7125 15.7837 29.4804 16.9503C29.2484 18.1169 28.6756 19.1885 27.8345 20.0296C26.9935 20.8706 25.9219 21.4434 24.7553 21.6755C23.5887 21.9075 22.3795 21.7884 21.2805 21.3332C20.1816 20.8781 19.2424 20.1072 18.5815 19.1182C17.9207 18.1292 17.568 16.9665 17.568 15.777C17.5699 14.1826 18.2041 12.654 19.3315 11.5265C20.459 10.3991 21.9876 9.76489 23.582 9.76303Z" fill="#FFA877"/>
	<path d="M22.499 18.207C23.194 18.207 23.8734 18.0009 24.4513 17.6147C25.0291 17.2286 25.4795 16.6798 25.7455 16.0377C26.0115 15.3956 26.0811 14.6891 25.9455 14.0074C25.8099 13.3258 25.4752 12.6996 24.9838 12.2082C24.4923 11.7167 23.8662 11.3821 23.1845 11.2465C22.5029 11.1109 21.7963 11.1805 21.1542 11.4464C20.5121 11.7124 19.9633 12.1628 19.5772 12.7407C19.1911 13.3186 18.985 13.998 18.985 14.693C18.986 15.6246 19.3566 16.5178 20.0154 17.1766C20.6742 17.8353 21.5673 18.2059 22.499 18.207Z" fill="white"/>
	<path d="M35.462 15.178C35.4922 12.4513 34.6688 9.78336 33.107 7.548C29.572 2.744 23.651 2.5 22.499 2.5C21.347 2.5 15.423 2.751 11.894 7.548C10.331 9.78319 9.50709 12.4517 9.53799 15.179C9.41199 19.4 10.904 22.096 14.176 28.004L16.361 31.984C18.1182 35.2377 19.8131 38.5247 21.445 41.843C21.5419 42.0403 21.6922 42.2064 21.8787 42.3226C22.0653 42.4389 22.2807 42.5005 22.5005 42.5005C22.7203 42.5005 22.9357 42.4389 23.1222 42.3226C23.3088 42.2064 23.4591 42.0403 23.556 41.843C25.1879 38.5247 26.8829 35.2377 28.64 31.984L30.826 28C34.095 22.094 35.587 19.399 35.461 15.179L35.462 15.178ZM11.891 15.248C11.8459 12.999 12.5096 10.7929 13.788 8.942L13.789 8.941C16.709 4.973 21.917 4.853 22.501 4.852C23.085 4.851 28.288 4.967 31.211 8.941C32.4898 10.7921 33.1538 12.9986 33.109 15.248C33.216 18.822 31.914 21.175 28.768 26.859L26.57 30.865L22.501 38.679C21.1836 36.0539 19.8272 33.4486 18.432 30.864L16.235 26.864C13.086 21.178 11.783 18.824 11.891 15.249V15.248ZM22.499 20.707C23.6884 20.707 24.8512 20.3543 25.8402 19.6935C26.8292 19.0326 27.6 18.0934 28.0552 16.9945C28.5104 15.8955 28.6295 14.6863 28.3974 13.5197C28.1654 12.3531 27.5926 11.2815 26.7515 10.4405C25.9105 9.59939 24.8389 9.02661 23.6723 8.79456C22.5057 8.56251 21.2964 8.6816 20.1975 9.13679C19.0986 9.59197 18.1594 10.3628 17.4985 11.3518C16.8377 12.3408 16.485 13.5035 16.485 14.693C16.4868 16.2874 17.1211 17.8161 18.2485 18.9435C19.3759 20.0709 20.9045 20.7051 22.499 20.707ZM22.499 11.179C23.194 11.179 23.8734 11.3851 24.4513 11.7712C25.0291 12.1573 25.4795 12.7062 25.7455 13.3483C26.0115 13.9903 26.0811 14.6969 25.9455 15.3785C25.8099 16.0602 25.4752 16.6863 24.9838 17.1778C24.4923 17.6692 23.8662 18.0039 23.1845 18.1395C22.5029 18.2751 21.7963 18.2055 21.1542 17.9395C20.5121 17.6735 19.9633 17.2231 19.5772 16.6453C19.1911 16.0674 18.985 15.388 18.985 14.693C18.986 13.7614 19.3566 12.8682 20.0154 12.2094C20.6742 11.5506 21.5673 11.1801 22.499 11.179Z" fill="#282C54"/>
</svg>
