<svg width="45" height="45" viewBox="0 0 45 45" fill="none" xmlns="http://www.w3.org/2000/svg">
	<path d="M24.398 27.3021L24.467 26.2911C24.5061 25.6829 24.7594 25.1083 25.1819 24.6691C25.6044 24.2299 26.1688 23.9546 26.775 23.8921C32.168 23.4231 35.389 20.2091 35.389 15.2971C35.389 9.35706 31.383 5.81006 24.671 5.81006C18.311 5.81006 14.209 8.90606 13.699 14.0931C13.696 14.1303 13.7007 14.1679 13.7127 14.2033C13.7247 14.2387 13.7439 14.2713 13.769 14.299C13.7941 14.3267 13.8246 14.349 13.8587 14.3645C13.8927 14.38 13.9296 14.3884 13.967 14.3891H20.447C20.531 14.3891 20.605 14.2781 20.633 14.1681C20.843 13.3358 21.3363 12.6026 22.0281 12.0944C22.7199 11.5862 23.567 11.3347 24.424 11.3831C24.9327 11.3597 25.4406 11.4429 25.9152 11.6275C26.3897 11.812 26.8205 12.0938 27.1797 12.4546C27.539 12.8155 27.8188 13.2474 28.0012 13.7228C28.1836 14.1982 28.2646 14.7065 28.239 15.2151C28.2768 15.76 28.2008 16.3069 28.0159 16.821C27.831 17.335 27.5413 17.805 27.165 18.2011C25.93 19.4781 23.778 20.0481 20.186 20.0481H18.094C18.0596 20.048 18.0255 20.0549 17.9938 20.0684C17.9621 20.0818 17.9334 20.1014 17.9094 20.1261C17.8854 20.1509 17.8667 20.1801 17.8542 20.2123C17.8418 20.2444 17.8359 20.2786 17.837 20.3131L18.049 27.2911C18.0511 27.3577 18.0789 27.421 18.1266 27.4676C18.1744 27.5143 18.2383 27.5406 18.305 27.5411H24.14C24.2053 27.5407 24.2681 27.5157 24.3158 27.471C24.3635 27.4263 24.3925 27.3652 24.397 27.3001L24.398 27.3021ZM25.734 37.3691C25.734 35.0911 23.899 33.4991 21.272 33.4991C18.616 33.4991 16.762 35.0911 16.762 37.3691C16.762 39.6551 18.574 41.1901 21.272 41.1901C23.899 41.1901 25.734 39.6191 25.734 37.3691Z" fill="#F47DB9"/>
	<path d="M20.272 30.189C19.9427 30.191 19.6139 30.2121 19.287 30.252C15.854 30.648 13.452 33.095 13.452 36.369C13.452 39.922 16.32 42.5 20.272 42.5C24.195 42.5 27.044 39.922 27.044 36.369C27.044 32.788 24.196 30.189 20.272 30.189ZM15.762 36.369C15.762 34.091 17.616 32.499 20.272 32.499C22.899 32.499 24.734 34.091 24.734 36.369C24.734 38.619 22.899 40.19 20.272 40.19C17.574 40.19 15.762 38.655 15.762 36.369ZM23.672 2.5C14.64 2.5 10.894 7.855 10.402 12.867C10.3672 13.2251 10.4076 13.5866 10.5206 13.9282C10.6337 14.2698 10.8169 14.584 11.0585 14.8507C11.3001 15.1173 11.5948 15.3305 11.9236 15.4766C12.2524 15.6227 12.6082 15.6985 12.968 15.699H19.448C20.0084 15.6924 20.5505 15.499 20.9885 15.1494C21.4266 14.7998 21.7354 14.314 21.866 13.769C21.9113 13.5235 22.0276 13.2966 22.2006 13.1166C22.3735 12.9365 22.5955 12.8111 22.839 12.756C23.0311 12.7113 23.2278 12.6902 23.425 12.693C24.408 12.693 24.9 13.212 24.93 14.288C24.9584 14.524 24.9351 14.7634 24.8615 14.9895C24.7879 15.2156 24.6659 15.4229 24.504 15.597C23.9702 16.0561 23.3161 16.3528 22.619 16.452C21.4875 16.6647 20.3371 16.7608 19.186 16.739H17.094C16.9211 16.7389 16.7486 16.7559 16.579 16.79C15.9863 16.9115 15.4554 17.2383 15.08 17.7128C14.7046 18.1874 14.5088 18.7792 14.527 19.384L14.739 26.362C14.7557 27.0302 15.0337 27.6653 15.5132 28.1309C15.9927 28.5966 16.6356 28.8558 17.304 28.853H23.139C23.7892 28.8513 24.4147 28.6037 24.8897 28.1597C25.3648 27.7158 25.6543 27.1086 25.7 26.46L25.769 25.448C25.77 25.3887 25.7907 25.3313 25.8278 25.285C25.8649 25.2386 25.9163 25.2059 25.974 25.192C32.59 24.617 36.7 20.442 36.7 14.297C36.7 7.02 31.708 2.5 23.672 2.5ZM17.306 26.543C17.2393 26.5425 17.1754 26.5162 17.1276 26.4696C17.0799 26.423 17.0521 26.3597 17.05 26.293L16.838 19.315C16.8369 19.2806 16.8428 19.2463 16.8552 19.2142C16.8677 19.1821 16.8864 19.1528 16.9104 19.1281C16.9344 19.1034 16.9631 19.0837 16.9948 19.0703C17.0265 19.0569 17.0606 19.05 17.095 19.05H19.187C22.78 19.05 24.932 18.48 26.166 17.203C26.5423 16.8069 26.832 16.337 27.0169 15.8229C27.2018 15.3089 27.2778 14.762 27.24 14.217C27.2656 13.7085 27.1847 13.2002 27.0022 12.7248C26.8198 12.2494 26.54 11.8174 26.1807 11.4565C25.8215 11.0957 25.3907 10.814 24.9162 10.6294C24.4416 10.4449 23.9337 10.3616 23.425 10.385C22.568 10.3366 21.7209 10.5881 21.0291 11.0963C20.3373 11.6045 19.8441 12.3377 19.634 13.17C19.605 13.28 19.532 13.391 19.448 13.391H12.968C12.9306 13.3903 12.8937 13.382 12.8597 13.3665C12.8256 13.351 12.7951 13.3287 12.77 13.301C12.7449 13.2732 12.7257 13.2406 12.7137 13.2052C12.7017 13.1698 12.697 13.1323 12.7 13.095C13.21 7.908 17.312 4.812 23.672 4.812C30.384 4.812 34.39 8.359 34.39 14.299C34.39 19.211 31.169 22.425 25.776 22.894C25.1698 22.9566 24.6054 23.2319 24.1829 23.671C23.7604 24.1102 23.5071 24.6848 23.468 25.293L23.399 26.304C23.3945 26.3692 23.3655 26.4302 23.3178 26.4749C23.2701 26.5196 23.2073 26.5447 23.142 26.545L17.306 26.543ZM6.62401 25.492C5.88701 21.809 8.72601 19.128 8.84601 19.016C8.96164 18.9089 9.05504 18.7801 9.12089 18.6369C9.18673 18.4937 9.22373 18.3389 9.22977 18.1815C9.2358 18.024 9.21076 17.8668 9.15607 17.719C9.10137 17.5712 9.01811 17.4356 8.91101 17.32C8.80392 17.2044 8.6751 17.111 8.53191 17.0451C8.38872 16.9793 8.23396 16.9423 8.07647 16.9362C7.91899 16.9302 7.76185 16.9553 7.61404 17.0099C7.46623 17.0646 7.33064 17.1479 7.21501 17.255C7.05401 17.405 3.27301 20.977 4.27101 25.963C4.77748 28.3046 6.15842 30.3648 8.13201 31.723C8.39404 31.8974 8.71413 31.9619 9.02327 31.9026C9.33242 31.8432 9.60586 31.6648 9.78466 31.4057C9.96346 31.1466 10.0333 30.8277 9.97911 30.5176C9.92493 30.2075 9.75107 29.9311 9.49501 29.748C8.03262 28.7452 7.00654 27.2236 6.62501 25.492H6.62401ZM38.813 26.676C38.6063 26.4407 38.3159 26.2955 38.0036 26.2713C37.6914 26.2471 37.3821 26.3458 37.1416 26.5464C36.9011 26.747 36.7484 27.0336 36.7162 27.3451C36.684 27.6566 36.7747 27.9684 36.969 28.214C37.6116 29.0046 38.0652 29.9314 38.2954 30.9239C38.5255 31.9164 38.5261 32.9483 38.297 33.941C37.8483 35.5132 36.8121 36.8527 35.403 37.682C35.176 37.8157 34.9993 38.0204 34.9002 38.2645C34.801 38.5085 34.785 38.7785 34.8545 39.0326C34.924 39.2867 35.0752 39.5109 35.2847 39.6705C35.4943 39.8302 35.7506 39.9164 36.014 39.916C36.2279 39.9164 36.438 39.8591 36.622 39.75C38.5689 38.6002 39.9981 36.7448 40.613 34.569C40.9344 33.2035 40.9394 31.7826 40.6274 30.4149C40.3154 29.0472 39.6948 27.769 38.813 26.678V26.676Z" fill="#282C54"/>
</svg>
