<svg xmlns="http://www.w3.org/2000/svg" width="31" height="31" xmlns:v="https://vecta.io/nano"><path d="M27.105 12.158l-.035-.172a1.135 1.135 0 0 0-1.336-.886L4.613 15.381a1.135 1.135 0 0 0-.886 1.337l.035.172zM4.098 18.55l1.721 8.492a1.135 1.135 0 0 0 1.337.886l21.122-4.281a1.135 1.135 0 0 0 .885-1.336l-1.721-8.492zm9.015-13.367a1.016 1.016 0 1 0-1.199-.794 1.017 1.017 0 0 0 1.199.794z" fill="#a7dbff"/><path d="M24.341 8.44l-1.332.27-8.428-3.127a2.711 2.711 0 1 0-3.473.714l-6.53 6.149-1.36.276a3.397 3.397 0 0 0-2.651 3.999l2.093 10.324a3.397 3.397 0 0 0 3.999 2.651l21.122-4.281a3.396 3.396 0 0 0 2.65-3.999l-2.093-10.324a3.396 3.396 0 0 0-3.998-2.652zm2.992 14.761L6.211 27.482a1.135 1.135 0 0 1-1.337-.886l-1.721-8.492 23.343-4.732 1.721 8.492a1.135 1.135 0 0 1-.885 1.336zM3.668 14.935l21.122-4.281a1.135 1.135 0 0 1 1.336.886l.035.172-23.343 4.732-.035-.172a1.135 1.135 0 0 1 .886-1.337zm8.565-11.985a1.016 1.016 0 1 1-.795 1.199 1.018 1.018 0 0 1 .795-1.199zm.797 3.864l6.828 2.534L7.73 11.807z" fill="#282c54"/><path d="M8.576 24.672a2.696 2.696 0 0 1-2.199-4.184 2.687 2.687 0 0 1 1.699-1.108 2.874 2.874 0 0 1 .564-.057 2.592 2.592 0 0 1 2.579 2.142 2.625 2.625 0 0 1-2.083 3.15 2.828 2.828 0 0 1-.561.057zm.044-3.17a.556.556 0 0 0-.111.013c-.186.037-.232.119-.248.146a.606.606 0 0 0-.026.408c.083.412.288.412.355.412h0a.573.573 0 0 0 .112-.013c.11-.022.371-.075.274-.55-.085-.417-.29-.417-.357-.417z" fill="#fff"/><path d="M8.641 19.888a2.039 2.039 0 0 1 2.026 1.689 2.06 2.06 0 0 1-1.642 2.485 2.256 2.256 0 0 1-.448.045 2.107 2.107 0 0 1-.389-4.173 2.278 2.278 0 0 1 .452-.046m-.051 3.158a1.13 1.13 0 0 0 .224-.023.93.93 0 0 0 .716-1.215.943.943 0 0 0-.911-.869 1.121 1.121 0 0 0-.223.023.927.927 0 0 0-.716 1.221.94.94 0 0 0 .909.864m.051-4.287h0a3.415 3.415 0 0 0-.677.068 3.243 3.243 0 0 0-2.053 1.343 3.26 3.26 0 0 0 2.666 5.067 3.393 3.393 0 0 0 .672-.068 3.238 3.238 0 0 0-.609-6.41z" fill="#282c54"/><path d="M12.666 23.846a.565.565 0 0 1-.553-.452l-.815-4.024a.565.565 0 0 1 .441-.666l1.673-.339a2.835 2.835 0 0 1 .561-.059 1.837 1.837 0 0 1 1.884 1.536 1.858 1.858 0 0 1-.27 1.43 2.14 2.14 0 0 1-1.41.865l.163.806a.565.565 0 0 1-.441.666l-1.119.227a.563.563 0 0 1-.113.011z" fill="#fff"/><path d="M13.972 18.87a1.272 1.272 0 0 1 1.331 1.084 1.359 1.359 0 0 1-1.239 1.63l-.553.112.275 1.359-1.119.227-.816-4.025 1.672-.339a2.255 2.255 0 0 1 .447-.048m-.641 1.935l.445-.09c.336-.068.439-.267.386-.529a.392.392 0 0 0-.408-.361.779.779 0 0 0-.154.017l-.445.09.177.873m.641-3.064a3.394 3.394 0 0 0-.672.07l-1.672.339a1.129 1.129 0 0 0-.883 1.331l.816 4.025a1.129 1.129 0 0 0 1.331.883l1.119-.227a1.129 1.129 0 0 0 .883-1.331l-.06-.297a2.557 2.557 0 0 0 1.221-.944 2.487 2.487 0 0 0-2.083-3.848z" fill="#282c54"/><path d="M17.387 22.889a.565.565 0 0 1-.553-.452l-.816-4.024a.565.565 0 0 1 .441-.666l2.575-.521a.568.568 0 0 1 .666.441l.182.896a.568.568 0 0 1-.083.425.518.518 0 0 1-.045.059.56.56 0 0 1 .089.208l.173.851a.563.563 0 0 1-.016.282.566.566 0 0 1 .334.408l.182.896a.565.565 0 0 1-.441.666l-2.574.521a.562.562 0 0 1-.113.011z" fill="#fff"/><path d="M19.147 17.778l.182.896-1.456.295.133.656 1.284-.26.172.851-1.284.26.147.725 1.456-.295.182.896-2.575.522-.816-4.025 2.575-.522m.001-1.13a1.135 1.135 0 0 0-.226.023l-2.575.522a1.129 1.129 0 0 0-.883 1.331l.816 4.025a1.128 1.128 0 0 0 1.331.883l2.575-.522a1.13 1.13 0 0 0 .883-1.331l-.182-.896a1.124 1.124 0 0 0-.301-.567 1.13 1.13 0 0 0-.018-.124l-.172-.851q-.006-.031-.014-.061a1.129 1.129 0 0 0 .053-.63l-.182-.896a1.13 1.13 0 0 0-1.106-.905z" fill="#282c54"/><path d="M21.604 22.034a.565.565 0 0 1-.553-.452l-.815-4.024a.566.566 0 0 1 .441-.666l1.118-.228a.624.624 0 0 1 .112-.011.559.559 0 0 1 .401.168l.621.628-.086-.421a.565.565 0 0 1 .441-.666l1.119-.227a.568.568 0 0 1 .666.441l.815 4.024a.566.566 0 0 1-.441.666l-1.119.228a.547.547 0 0 1-.112.011.566.566 0 0 1-.399-.165l-.619-.621.083.411a.565.565 0 0 1-.441.666l-1.119.227a.563.563 0 0 1-.113.011z" fill="#fff"/><path d="M24.516 16.69l.816 4.025-1.119.227-1.946-1.948.456 2.25-1.119.227-.816-4.025 1.119-.227 1.951 1.976-.462-2.278 1.119-.227m.001-1.13a1.135 1.135 0 0 0-.226.023l-1.119.227a1.129 1.129 0 0 0-.686.439 1.129 1.129 0 0 0-.803-.137l-1.119.227a1.13 1.13 0 0 0-.883 1.331l.816 4.025a1.128 1.128 0 0 0 1.331.883l1.119-.227a1.13 1.13 0 0 0 .686-.439 1.129 1.129 0 0 0 .803.137l1.119-.227a1.129 1.129 0 0 0 .883-1.331l-.816-4.025a1.13 1.13 0 0 0-1.106-.905z" fill="#282c54"/></svg>