<svg xmlns="http://www.w3.org/2000/svg" width="31" height="31" xmlns:v="https://vecta.io/nano"><path d="M20.483 12.645h1.796a1.157 1.157 0 1 1 0 2.314h-1.796v2.506h1.796a1.157 1.157 0 0 1 0 2.314h-1.796v2.317h3.564a1.156 1.156 0 0 1 1.157 1.157v5.782h2.556V10.35h-7.277zm-2.314-8.982H4.622v25.372h1.791v-7.63a1.156 1.156 0 0 1 1.157-1.157h7.651a1.156 1.156 0 0 1 1.157 1.157v7.63h1.792zM7.263 6.49h8.263a1.157 1.157 0 0 1 0 2.314H7.263a1.157 1.157 0 1 1 0-2.314zm0 4.539h8.263a1.157 1.157 0 1 1 0 2.314H7.263a1.157 1.157 0 1 1 0-2.314zm8.263 6.853H7.263a1.157 1.157 0 1 1 0-2.314h8.263a1.157 1.157 0 0 1 0 2.314z" fill="#a7dbff"/><path d="M28.226 7.187h-8.434v-5.53A1.156 1.156 0 0 0 18.635.5H2.774a1.156 1.156 0 0 0-1.157 1.157v27.686A1.156 1.156 0 0 0 2.774 30.5h25.452a1.156 1.156 0 0 0 1.157-1.157V8.344a1.156 1.156 0 0 0-1.157-1.157zM8.036 21.713h5.337v6.474H8.036zm8.828 6.474h-1.177v-7.63a1.156 1.156 0 0 0-1.157-1.157H6.879a1.156 1.156 0 0 0-1.157 1.157v7.63H3.931V2.814h13.547v25.372zm2.928-4.625H22.2v4.625h-2.408zm7.277 4.625h-2.556v-5.782a1.156 1.156 0 0 0-1.157-1.157h-3.564V18.93h1.796a1.157 1.157 0 1 0 0-2.314h-1.796V14.11h1.796a1.157 1.157 0 1 0 0-2.314h-1.796V9.501h7.277z" fill="#282c54"/><path d="M19.792 23.561H22.2v4.625h-2.408zM8.036 21.713h5.337v6.474H8.036z" fill="#fff"/><path d="M6.573 7.955h8.263a1.157 1.157 0 1 0 0-2.314H6.573a1.157 1.157 0 1 0 0 2.314zm0 4.54h8.263a1.157 1.157 0 1 0 0-2.314H6.573a1.157 1.157 0 1 0 0 2.314zm9.42 3.382a1.156 1.156 0 0 0-1.157-1.157H6.573a1.157 1.157 0 1 0 0 2.314h8.263a1.156 1.156 0 0 0 1.157-1.157z" fill="#282c54"/></svg>