<svg width="45" height="45" viewBox="0 0 45 45" fill="none" xmlns="http://www.w3.org/2000/svg">
	<path d="M21.002 30.429C20.9658 30.3246 20.9391 30.2172 20.922 30.108H17.84C18.01 32.165 19.636 33.307 21.863 33.503V33.722C21.885 33.724 21.905 33.73 21.928 33.732V34.886H22.943V33.52C25.605 33.402 27.057 31.8 27.057 29.979C27.088 29.2237 26.8204 28.4865 26.312 27.927C25.3427 27.2001 24.2172 26.7095 23.025 26.494V26.487V26.394L22.944 26.371V23.758C23.0887 23.8124 23.2222 23.8927 23.338 23.995C23.4883 24.1063 23.6137 24.2476 23.7065 24.4099C23.7993 24.5722 23.8574 24.7521 23.877 24.938H26.888C26.874 24.3509 26.7084 23.7774 26.4074 23.2731C26.1064 22.7689 25.6801 22.351 25.17 22.06C24.5028 21.7206 23.7731 21.5219 23.026 21.476V21.469V21.443L22.945 21.432V20.09H21.93V21.47V21.477C19.62 21.63 17.836 22.881 17.807 24.99C17.838 27.589 20.073 28.096 21.866 28.565V28.698L21.931 28.715V31.421V31.428C21.7017 31.3596 21.4949 31.2309 21.3322 31.0554C21.1695 30.8798 21.0568 30.6639 21.006 30.43L21.002 30.429ZM23.024 29.039C23.691 29.296 24.137 29.638 24.137 30.255V30.259V30.262C24.1367 30.567 24.0224 30.8609 23.8164 31.0859C23.6105 31.3109 23.3278 31.4508 23.024 31.478V31.471V29.039ZM21.928 26.135C21.311 25.861 20.9 25.502 20.9 24.902L20.901 24.898V24.895C20.8855 24.6066 20.985 24.3239 21.1777 24.1088C21.3705 23.8938 21.6407 23.764 21.929 23.748V26.128L21.928 26.135Z" fill="white"/>
	<path d="M31.142 14.257L31.885 14.167C33.1141 13.9468 34.2825 13.4683 35.313 12.763C34.3144 13.3451 33.2398 13.7856 32.12 14.072C31.7977 14.1518 31.4712 14.2136 31.142 14.257ZM12.937 13.959C12.0112 13.7715 11.1173 13.4512 10.283 13.008C11.1585 13.494 12.1041 13.8415 13.086 14.038C13.5772 14.133 14.0758 14.1855 14.576 14.195L14.615 14.127C14.0517 14.1226 13.4899 14.066 12.937 13.958V13.959ZM23.52 6.017C21.9378 6.8531 20.2046 7.3651 18.422 7.523C17.6381 7.59045 16.8497 7.58912 16.066 7.519L18.021 12.267H23.482H24.776H28.985L30.958 7.477C30.2718 7.5295 29.5827 7.53285 28.896 7.487C27.0247 7.35498 25.1978 6.8551 23.52 6.016V6.017ZM11.091 10.771L11.318 10.899L11.091 10.771ZM38.008 31.614L28.694 15.146L28.162 15.044C27.0528 14.8051 25.9249 14.6629 24.791 14.619H23.487L18.427 14.94L8.99701 31.614C8.50037 32.4745 8.23386 33.4485 8.22317 34.442C8.21249 35.4355 8.45799 36.415 8.93601 37.286C9.57659 38.4046 10.4898 39.3428 11.5907 40.0134C12.6916 40.6839 13.9442 41.065 15.232 41.121L16.031 41.151H30.974L31.771 41.121C33.0591 41.0652 34.3121 40.6843 35.4134 40.0137C36.5146 39.3432 37.4282 38.4048 38.069 37.286C38.5469 36.415 38.7924 35.4355 38.7817 34.442C38.771 33.4485 38.5046 32.4746 38.008 31.614ZM26.28 36.698C26.155 37.2013 25.8652 37.6483 25.4567 37.9678C25.0482 38.2873 24.5446 38.4609 24.026 38.461H22.93C22.3968 38.4609 21.8799 38.2774 21.466 37.9412C21.0521 37.6051 20.7665 37.1368 20.657 36.615C19.4828 36.2613 18.4495 35.5474 17.7033 34.5742C16.9571 33.601 16.5358 32.4178 16.499 31.192C16.4846 30.8172 16.5613 30.4445 16.7224 30.1058C16.8835 29.767 17.1242 29.4724 17.424 29.247C16.7742 28.3043 16.4431 27.1784 16.479 26.034C16.4769 24.7862 16.8864 23.5725 17.6442 22.581C18.4019 21.5895 19.4654 20.8757 20.67 20.55C20.7905 20.0411 21.0791 19.5877 21.4892 19.2632C21.8994 18.9387 22.407 18.7621 22.93 18.762H24.026C24.5552 18.7618 25.0685 18.9424 25.4812 19.2737C25.8938 19.605 26.1809 20.0673 26.295 20.584C27.43 20.9452 28.4271 21.6455 29.1521 22.5906C29.8771 23.5357 30.2952 24.6801 30.35 25.87C30.3766 26.246 30.3113 26.6228 30.1597 26.968C30.0082 27.3131 29.7749 27.6162 29.48 27.851C30.1962 28.8004 30.5657 29.9664 30.527 31.155C30.5263 32.4171 30.11 33.6439 29.3423 34.6458C28.5747 35.6477 27.4985 36.3689 26.28 36.698ZM21.002 30.429L21.005 30.434C20.9715 30.3253 20.9474 30.2139 20.933 30.101H20.921L20.922 30.108C20.9391 30.2172 20.9658 30.3246 21.002 30.429Z" fill="#77DFB7"/>
	<path d="M23.023 31.472V31.479C23.3268 31.4518 23.6095 31.3119 23.8154 31.0869C24.0214 30.8619 24.1357 30.568 24.136 30.263V30.26C24.1347 30.5642 24.0201 30.857 23.8144 31.0811C23.6088 31.3052 23.3269 31.4446 23.024 31.472H23.023ZM20.9 24.898L20.899 24.902C20.899 25.501 21.31 25.861 21.927 26.135V26.128C21.312 25.854 20.901 25.495 20.899 24.898H20.9Z" fill="#1BA199"/>
	<path d="M39.052 29.454L30.498 14.329L31.141 14.257C31.4702 14.2136 31.7967 14.1518 32.119 14.072C33.2388 13.7856 34.3134 13.3451 35.312 12.763L35.808 12.474C35.9429 12.3934 36.0603 12.2866 36.1532 12.16C36.2462 12.0333 36.3128 11.8892 36.3491 11.7364C36.3854 11.5835 36.3908 11.4249 36.3648 11.2699C36.3388 11.115 36.2821 10.9668 36.1978 10.8342C36.1136 10.7015 36.0037 10.5871 35.8745 10.4976C35.7454 10.4081 35.5996 10.3455 35.4458 10.3133C35.292 10.2811 35.1333 10.2801 34.9791 10.3103C34.8249 10.3405 34.6783 10.4012 34.548 10.489C33.6241 11.0807 32.6112 11.5203 31.548 11.791C31.1121 11.9027 30.667 11.9743 30.218 12.005L32.921 5.443C33.0031 5.24325 33.0285 5.02477 32.9946 4.81152C32.9607 4.59826 32.8687 4.39847 32.7287 4.23403C32.5888 4.06959 32.4062 3.94686 32.2011 3.8793C31.996 3.81173 31.7763 3.80194 31.566 3.851C30.4155 4.12118 29.2311 4.21791 28.052 4.138C26.3036 4.01429 24.6041 3.50584 23.075 2.649C22.8948 2.54777 22.6912 2.49585 22.4845 2.49849C22.2779 2.50112 22.0756 2.55821 21.898 2.664C20.47 3.51305 18.869 4.0295 17.214 4.175C15.9538 4.28582 14.6838 4.17858 13.46 3.858C13.2486 3.8028 13.0259 3.80766 12.8171 3.87203C12.6083 3.9364 12.4215 4.05772 12.2779 4.22238C12.1342 4.38704 12.0393 4.58849 12.0038 4.80412C11.9683 5.01974 11.9937 5.24099 12.077 5.443L14.687 11.779C14.2526 11.7772 13.8194 11.7344 13.393 11.651C12.6676 11.5036 11.968 11.2495 11.317 10.897L11.09 10.769L10.542 10.432C10.4147 10.3395 10.2701 10.2734 10.1168 10.2378C9.96354 10.2021 9.80465 10.1976 9.64958 10.2245C9.49451 10.2514 9.34642 10.3092 9.21407 10.3944C9.08173 10.4796 8.96784 10.5904 8.87914 10.7204C8.79043 10.8505 8.72873 10.9969 8.69768 11.1512C8.66663 11.3055 8.66687 11.4645 8.69838 11.6187C8.72988 11.7729 8.79203 11.9192 8.88111 12.0489C8.9702 12.1787 9.08443 12.2892 9.21702 12.374C9.5598 12.6052 9.91574 12.8162 10.283 13.006C11.1173 13.4492 12.0112 13.7695 12.937 13.957C13.4899 14.065 14.0517 14.1216 14.615 14.126L14.576 14.194L5.94702 29.453C5.25262 30.6569 4.87968 32.0192 4.8641 33.4088C4.84851 34.7985 5.19079 36.1689 5.85802 37.388C6.68364 38.8562 7.86762 40.0915 9.29956 40.9785C10.7315 41.8656 12.3647 42.3756 14.047 42.461C14.3697 42.4863 14.6967 42.499 15.028 42.499H29.971C30.3024 42.499 30.6287 42.4863 30.95 42.461C32.6326 42.3759 34.2663 41.8661 35.6986 40.979C37.1309 40.0919 38.3152 38.8565 39.141 37.388C39.8083 36.1689 40.1505 34.7985 40.1349 33.4088C40.1194 32.0192 39.7464 30.6569 39.052 29.453V29.454ZM30.768 40.118L29.971 40.148H15.029C14.7624 40.1484 14.4959 40.1384 14.23 40.118C12.9422 40.062 11.6896 39.6809 10.5887 39.0104C9.48786 38.3398 8.57461 37.4016 7.93402 36.283C7.45601 35.412 7.2105 34.4325 7.22119 33.439C7.23187 32.4455 7.49839 31.4715 7.99502 30.611L17.425 13.937L22.485 13.616H23.789C24.9229 13.6599 26.0508 13.8021 27.16 14.041L27.692 14.143L37.006 30.611C37.5026 31.4716 37.769 32.4455 37.7797 33.439C37.7904 34.4325 37.5449 35.412 37.067 36.283C36.4262 37.4018 35.5126 38.3402 34.4114 39.0107C33.3102 39.6813 32.0571 40.0622 30.769 40.118H30.768ZM29.955 6.474L27.982 11.264H23.773C23.369 11.253 22.944 11.25 22.479 11.264H17.018L15.063 6.516C15.8467 6.58612 16.6351 6.58745 17.419 6.52C19.2016 6.3621 20.9348 5.8501 22.517 5.014C24.1948 5.8531 26.0217 6.35298 27.893 6.485C28.5797 6.53084 29.2688 6.5275 29.955 6.475V6.474ZM28.729 26.615C28.9462 26.3817 29.1131 26.1062 29.2192 25.8057C29.3254 25.5051 29.3685 25.1859 29.346 24.868C29.2912 23.6781 28.8731 22.5337 28.1481 21.5886C27.4231 20.6435 26.426 19.9432 25.291 19.582C25.1769 19.0653 24.8898 18.603 24.4772 18.2717C24.0646 17.9404 23.5512 17.7598 23.022 17.76H21.926C21.403 17.7601 20.8954 17.9367 20.4853 18.2612C20.0751 18.5857 19.7865 19.0391 19.666 19.548C18.4614 19.8737 17.3979 20.5875 16.6402 21.579C15.8825 22.5705 15.4729 23.7842 15.475 25.032C15.4391 26.1764 15.7702 27.3023 16.42 28.245C16.1202 28.4704 15.8795 28.765 15.7184 29.1038C15.5573 29.4425 15.4807 29.8152 15.495 30.19C15.5318 31.4158 15.9531 32.599 16.6993 33.5722C17.4455 34.5454 18.4788 35.2593 19.653 35.613C19.7625 36.1348 20.0482 36.6031 20.462 36.9392C20.8759 37.2754 21.3928 37.4589 21.926 37.459H23.022C23.5406 37.4589 24.0442 37.2853 24.4527 36.9658C24.8612 36.6463 25.151 36.1993 25.276 35.696C26.4945 35.3669 27.5707 34.6457 28.3383 33.6438C29.106 32.6419 29.5223 31.4151 29.523 30.153C29.5617 28.9644 29.1922 27.7984 28.476 26.849C28.5656 26.7773 28.6499 26.6991 28.728 26.615H28.729ZM17.839 30.101H20.932C20.9464 30.2139 20.9705 30.3253 21.004 30.434C21.0564 30.6655 21.1695 30.8789 21.3318 31.0522C21.494 31.2255 21.6994 31.3525 21.927 31.42V28.714L21.862 28.697C20.039 28.222 17.798 27.69 17.798 25.032C17.798 25.015 17.803 25.001 17.803 24.984C17.831 22.874 19.615 21.622 21.927 21.469V20.082H23.023V21.469C23.5548 21.5072 24.0793 21.6151 24.583 21.79C25.278 22.0077 25.8876 22.4373 26.3264 23.0186C26.7652 23.5999 27.0112 24.3039 27.03 25.032H23.896C23.892 24.998 23.88 24.972 23.875 24.939C23.8554 24.7531 23.7973 24.5732 23.7045 24.4109C23.6118 24.2486 23.4863 24.1073 23.336 23.996C23.2393 23.9284 23.1341 23.8739 23.023 23.834V26.489C24.2092 26.705 25.3295 27.1916 26.297 27.911C26.6007 28.1975 26.8389 28.5463 26.9951 28.9334C27.1513 29.3206 27.2219 29.737 27.202 30.154C27.202 32.004 25.728 33.631 23.023 33.751V35.138H21.927V33.733C21.905 33.731 21.885 33.726 21.862 33.723C19.567 33.5 17.9 32.29 17.816 30.102L17.839 30.101ZM21.927 23.748C21.6385 23.764 21.3681 23.8939 21.1754 24.1092C20.9826 24.3245 20.8832 24.6075 20.899 24.896V24.899C20.9 25.496 21.311 25.855 21.927 26.129V23.748ZM24.136 30.259V30.255C24.136 29.638 23.69 29.296 23.023 29.039V31.472C23.326 31.4446 23.6078 31.3052 23.8135 31.0811C24.0191 30.857 24.1338 30.5642 24.135 30.26L24.136 30.259Z" fill="#282C54"/>
</svg>
